<?xml version="1.0" standalone="no"?>
<!DOCTYPE svg PUBLIC "-//W3C//DTD SVG 20010904//EN"
 "http://www.w3.org/TR/2001/REC-SVG-20010904/DTD/svg10.dtd">
<svg version="1.0" xmlns="http://www.w3.org/2000/svg"
 width="187.000000pt" height="187.000000pt" viewBox="0 0 187.000000 187.000000"
 preserveAspectRatio="xMidYMid meet">
<metadata>
Created by potrace 1.11, written by Peter Selinger 2001-2013
</metadata>
<g transform="translate(0.000000,187.000000) scale(0.100000,-0.100000)"
fill="#000000" stroke="none">
<path d="M540 1648 c0 -5 -5 -6 -10 -3 -14 9 -117 -13 -132 -28 -7 -7 -19 -12
-25 -13 -30 -2 -34 -5 -27 -16 4 -7 3 -8 -4 -4 -16 10 -54 -12 -46 -26 4 -7 3
-8 -5 -4 -14 9 -65 -25 -107 -72 -39 -42 -83 -118 -63 -108 8 4 7 1 -2 -6 -21
-17 -41 -135 -25 -142 8 -3 7 -5 0 -5 -8 -1 -9 -12 -3 -38 4 -21 8 -39 9 -40
1 -10 15 -4 45 20 20 16 33 32 30 37 -3 5 0 12 6 16 8 4 9 3 5 -4 -4 -7 -3
-12 2 -12 13 0 25 32 15 39 -12 9 -14 27 -17 113 -1 42 1 75 6 72 4 -3 8 -1 8
5 0 6 11 22 26 36 14 14 22 30 19 35 -3 6 1 7 9 4 9 -3 16 -1 16 6 0 6 4 9 9
6 5 -4 11 -1 13 6 2 6 11 13 19 14 7 2 39 12 69 23 30 11 71 22 91 26 36 7 37
7 33 -25 -2 -17 -7 -36 -10 -42 -5 -7 -2 -8 7 -3 11 7 12 6 3 -6 -6 -8 -14
-45 -18 -83 -4 -38 -9 -72 -11 -77 -3 -4 -1 -11 5 -14 7 -5 8 -11 1 -19 -5 -6
-12 -39 -15 -71 -2 -33 -5 -60 -6 -60 -1 0 -3 -20 -5 -45 -2 -25 -7 -60 -10
-78 -4 -22 -3 -32 4 -28 6 4 4 -6 -4 -20 -14 -28 -11 -49 5 -39 5 3 11 1 15
-4 3 -6 -4 -8 -16 -6 -18 4 -21 0 -17 -25 2 -16 1 -27 -2 -25 -4 2 -12 -14
-19 -35 -7 -22 -26 -56 -43 -76 -28 -32 -36 -35 -77 -33 -33 2 -45 -1 -43 -10
1 -7 -1 -10 -5 -8 -5 3 -23 -10 -41 -28 l-34 -33 37 -4 c20 -2 39 0 41 4 3 5
11 5 17 1 22 -14 99 -14 115 -1 9 8 13 8 9 2 -5 -8 6 -13 33 -16 45 -4 74 7
64 24 -4 6 -3 8 3 5 5 -4 22 6 37 22 15 16 21 28 14 29 -7 0 -43 1 -80 2 -38
1 -68 4 -68 6 0 2 13 10 29 18 44 23 103 85 97 102 -3 8 -1 14 5 14 6 0 8 7 5
16 -3 8 -2 13 3 10 5 -3 11 3 14 14 3 11 0 20 -6 20 -7 0 -5 5 3 10 13 9 13
10 0 10 -10 0 -11 3 -3 8 6 4 14 33 17 66 3 32 7 61 10 64 3 3 29 5 58 5 29
-1 60 3 68 7 12 6 16 3 17 -12 1 -12 8 -25 15 -29 7 -5 10 -9 5 -9 -4 0 -1
-13 8 -30 14 -27 14 -34 -6 -92 -23 -67 -31 -199 -13 -230 8 -14 17 -9 63 33
54 49 55 50 43 82 -21 58 -13 63 19 11 17 -27 35 -50 40 -52 5 -2 9 -8 9 -13
0 -13 105 -119 119 -120 32 -4 51 -7 55 -8 3 -1 -4 -50 -19 -130 -19 -106 -77
-176 -135 -166 -28 5 -39 0 -81 -40 -42 -39 -45 -45 -26 -46 12 0 47 -2 77 -4
30 -3 90 -6 132 -8 l77 -4 42 43 43 44 -49 1 c-28 1 -63 2 -79 2 l-30 0 25 16
c13 8 43 34 66 57 44 45 56 82 71 215 l7 64 66 3 66 3 51 -103 c96 -194 209
-339 273 -353 34 -8 60 6 109 57 37 38 71 105 63 125 -9 22 -27 15 -42 -18 -7
-17 -28 -37 -47 -46 -32 -16 -35 -15 -68 7 -34 24 -88 108 -181 284 -39 75
-44 90 -32 98 42 23 120 93 144 129 35 53 53 125 44 175 -25 132 -134 189
-355 186 -171 -2 -308 -43 -415 -124 -24 -19 -25 -18 -36 2 -6 11 -15 17 -19
13 -5 -4 -3 2 3 15 7 12 9 28 5 35 -5 8 -2 7 9 -2 11 -9 17 -10 17 -2 0 6 7
11 15 11 7 0 19 8 24 18 6 9 11 13 11 8 0 -5 14 5 30 22 31 33 39 49 18 36 -7
-4 -8 -3 -4 5 4 6 11 9 16 6 18 -11 51 65 57 128 4 51 0 73 -16 108 -21 43
-77 92 -107 92 -7 0 -14 3 -14 7 0 3 -27 12 -60 18 -68 15 -270 15 -270 0z
m-33 -27 c0 -11 -5 -18 -9 -15 -4 3 -5 11 -1 19 7 21 12 19 10 -4z m273 15 c0
-2 -8 -10 -17 -17 -16 -13 -17 -12 -4 4 13 16 21 21 21 13z m-353 -35 c0 -11
-5 -18 -9 -15 -4 3 -5 11 -1 19 7 21 12 19 10 -4z m281 -7 c17 1 32 -2 32 -6
0 -5 9 -8 21 -8 13 0 18 4 13 12 -4 7 -3 8 5 4 6 -4 9 -12 6 -17 -4 -5 4 -13
17 -18 13 -5 31 -17 40 -27 53 -58 53 -58 51 -119 -3 -84 -6 -97 -25 -119 -10
-10 -16 -22 -14 -25 4 -8 -78 -85 -95 -90 -23 -6 -127 -3 -138 4 -6 3 -11 1
-11 -4 0 -8 -7 -7 -19 1 -15 9 -19 21 -17 48 1 20 6 41 9 48 4 6 3 14 -3 17
-8 5 -7 11 1 21 9 11 8 14 -2 15 -10 0 -11 2 -1 6 6 2 12 11 12 19 0 10 -5 12
-12 8 -10 -6 -10 -5 -1 7 13 16 19 43 28 134 4 33 9 68 11 77 5 17 44 29 54
17 3 -3 20 -6 38 -5z m159 -13 c0 -11 -5 -18 -9 -15 -4 3 -5 11 -1 19 7 21 12
19 10 -4z m40 -6 c0 -8 -4 -12 -9 -9 -5 3 -6 10 -3 15 9 13 12 11 12 -6z
m-307 -1 c0 -8 -19 -13 -24 -6 -3 5 1 9 9 9 8 0 15 -2 15 -3z m-10 -84 c0 -5
-2 -10 -4 -10 -3 0 -8 5 -11 10 -3 6 -1 10 4 10 6 0 11 -4 11 -10z m364 2 c3
-5 -1 -9 -9 -9 -8 0 -12 4 -9 9 3 4 7 8 9 8 2 0 6 -4 9 -8z m32 -7 c-1 -8 -5
-17 -8 -21 -5 -4 -4 16 1 34 3 9 9 -1 7 -13z m-440 -80 c-1 -8 -5 -17 -8 -21
-5 -4 -4 16 1 34 3 9 9 -1 7 -13z m420 -37 c3 -4 -1 -5 -10 -4 -8 1 -18 5 -22
8 -3 4 1 5 10 4 8 -1 18 -5 22 -8z m-816 -78 c0 -5 -2 -10 -4 -10 -3 0 -8 5
-11 10 -3 6 -1 10 4 10 6 0 11 -4 11 -10z m354 2 c3 -5 -1 -9 -9 -9 -8 0 -12
4 -9 9 3 4 7 8 9 8 2 0 6 -4 9 -8z m50 0 c3 -5 -1 -9 -9 -9 -8 0 -12 4 -9 9 3
4 7 8 9 8 2 0 6 -4 9 -8z m-409 -81 c3 -5 2 -12 -3 -15 -5 -3 -9 1 -9 9 0 17
3 19 12 6z m401 -6 c-1 -8 -5 -17 -8 -21 -5 -4 -4 16 1 34 3 9 9 -1 7 -13z
m872 -57 c63 -31 85 -65 90 -136 5 -74 -23 -145 -80 -198 -40 -36 -44 -38
-122 -40 -45 -1 -88 1 -97 4 -13 6 -13 27 6 200 13 120 26 196 33 201 20 12
120 -6 170 -31z m-304 -37 c-4 -36 -8 -73 -9 -81 -1 -8 -8 -70 -15 -137 -8
-68 -17 -123 -21 -123 -22 0 -42 17 -78 65 -23 30 -41 59 -41 65 0 6 -4 8 -10
5 -5 -3 -10 0 -10 8 0 22 -26 68 -34 60 -4 -4 -4 0 0 10 4 11 1 17 -7 17 -7 0
-9 3 -6 6 3 4 0 16 -8 28 -21 28 -20 31 20 62 32 24 180 81 212 81 11 0 12
-14 7 -66z m-489 39 c3 -5 1 -10 -4 -10 -6 0 -11 5 -11 10 0 6 2 10 4 10 3 0
8 -4 11 -10z m120 -9 c3 -5 2 -12 -3 -15 -5 -3 -9 1 -9 9 0 17 3 19 12 6z
m-195 -5 c0 -3 -4 -8 -10 -11 -5 -3 -10 -1 -10 4 0 6 5 11 10 11 6 0 10 -2 10
-4z m-40 -126 c0 -5 -2 -10 -4 -10 -3 0 -8 5 -11 10 -3 6 -1 10 4 10 6 0 11
-4 11 -10z m360 6 c0 -3 -4 -8 -10 -11 -5 -3 -10 -1 -10 4 0 6 5 11 10 11 6 0
10 -2 10 -4z m35 -75 c3 -5 2 -12 -3 -15 -5 -3 -9 1 -9 9 0 17 3 19 12 6z
m-39 -56 c-1 -8 -5 -17 -8 -21 -5 -4 -4 16 1 34 3 9 9 -1 7 -13z m44 -31 c0
-8 -19 -13 -24 -6 -3 5 1 9 9 9 8 0 15 -2 15 -3z m56 -6 c3 -4 -1 -5 -10 -4
-8 1 -18 5 -22 8 -3 4 1 5 10 4 8 -1 18 -5 22 -8z m-21 -27 c3 -5 2 -12 -3
-15 -5 -3 -9 1 -9 9 0 17 3 19 12 6z m45 -5 c0 -3 -4 -8 -10 -11 -5 -3 -10 -1
-10 4 0 6 5 11 10 11 6 0 10 -2 10 -4z m-719 -69 c-6 -8 -7 -18 -3 -22 4 -5 1
-5 -6 -1 -10 6 -10 11 -1 22 6 8 14 14 16 14 3 0 0 -6 -6 -13z m159 -11 c0 -3
-4 -8 -10 -11 -5 -3 -10 -1 -10 4 0 6 5 11 10 11 6 0 10 -2 10 -4z m596 -22
c1 -9 0 -13 -4 -10 -3 4 -7 14 -8 22 -1 9 0 13 4 10 3 -4 7 -14 8 -22z"/>
</g>
</svg>
